<svg width="332" height="60" viewBox="0 0 332 60" fill="none" xmlns="http://www.w3.org/2000/svg">
<circle cx="302" cy="30" r="29" stroke="black" stroke-opacity="0.6" stroke-width="2"/>
<path d="M285.563 28.316V34H283.267V24.06H285.087L289.693 29.912V24.06H291.989V34H290.113L285.563 28.316ZM303.676 31.984V34H296.69V24.06H303.55V26.076H298.986V28.008H302.906V29.87H298.986V31.984H303.676ZM311.147 24.074H313.261L314.297 27.252L315.333 24.074H317.461L315.767 28.694L316.775 31.34L319.267 24.06H321.773L317.895 34H315.907L314.297 30.108L312.701 34H310.699L306.835 24.06H309.327L311.833 31.34L312.813 28.694L311.147 24.074Z" fill="black" fill-opacity="0.6"/>
</svg>
